<svg width="64" height="64" viewBox="0 0 64 64" fill="none" xmlns="http://www.w3.org/2000/svg">
<path d="M58.75 44.5V45.5H55.75V44.5H55.25C54.25 44.5 53.25 43.5 53.25 42.5V28.5C53.25 27.5 53.75 26.5 55.25 26.5H59.25C60.75 26.5 61.25 27.5 61.25 28.5V42.5C61.25 43.5 60.25 44.5 59.25 44.5H58.75Z" fill="black"/>
<path d="M52.75 37V32.5H31V37H52.75Z" fill="black"/>
<path d="M52.75 42.5C52.75 43 52.75 43 53.0088 43.5H32.25V37.5H52.75L52.75 42.5Z" fill="black"/>
<path d="M32.4399 32H52.75V28.5C52.75 27.5 53.25 26.5 54.25 26V21C54.25 19.8954 53.3546 19 52.25 19H32.4399C32.1637 19 31.9399 19.2239 31.9399 19.5V31.5C31.9399 31.7761 32.1637 32 32.4399 32Z" fill="black"/>
<path d="M4.5 44.5V45.5H7.5V44.5H8C9 44.5 10 43.5 10 42.5V28.5C10 27.5 9.5 26.5 8 26.5H4C2.5 26.5 2 27.5 2 28.5V42.5C2 43.5 3 44.5 4 44.5H4.5Z" fill="black"/>
<path d="M10.5 37V32.5H31V37H10.5Z" fill="black"/>
<path d="M10.5 42.5C10.5 43 10.5 43 10.2412 43.5H32.5V37.5H10.5L10.5 42.5Z" fill="black"/>
<path d="M30.8101 32H10.5V28.5C10.5 27.5 10 26.5 9 26V21C9 19.8954 9.89543 19 11 19H30.8101C31.0863 19 31.3101 19.2239 31.3101 19.5V31.5C31.3101 31.7761 31.0863 32 30.8101 32Z" fill="black"/>
</svg>
